<?xml version="1.0" encoding="UTF-8" standalone="no"?>
<!DOCTYPE svg PUBLIC "-//W3C//DTD SVG 1.1//EN"
 "http://www.w3.org/Graphics/SVG/1.1/DTD/svg11.dtd">
<!-- Generated by graphviz version 6.0.1 (20220911.1526)
 -->
<!-- Pages: 1 -->
<svg width="502pt" height="620pt"
 viewBox="0.00 0.00 501.77 620.00" xmlns="http://www.w3.org/2000/svg" xmlns:xlink="http://www.w3.org/1999/xlink">
<g id="graph0" class="graph" transform="scale(1 1) rotate(0) translate(4 616)">
<polygon fill="white" stroke="none" points="-4,4 -4,-616 497.77,-616 497.77,4 -4,4"/>
<!-- 28 -->
<g id="node1" class="node">
<title>28</title>
<ellipse fill="none" stroke="black" cx="397" cy="-594" rx="27" ry="18"/>
<text text-anchor="middle" x="397" y="-589.8" font-family="Times,serif" font-size="14.00">S</text>
</g>
<!-- 27 -->
<g id="node2" class="node">
<title>27</title>
<ellipse fill="none" stroke="black" cx="397" cy="-522" rx="27" ry="18"/>
<text text-anchor="middle" x="397" y="-517.8" font-family="Times,serif" font-size="14.00">E</text>
</g>
<!-- 28&#45;&gt;27 -->
<g id="edge1" class="edge">
<title>28&#45;&gt;27</title>
<path fill="none" stroke="black" d="M397,-575.7C397,-567.98 397,-558.71 397,-550.11"/>
<polygon fill="black" stroke="black" points="400.5,-550.1 397,-540.1 393.5,-550.1 400.5,-550.1"/>
</g>
<!-- 24 -->
<g id="node3" class="node">
<title>24</title>
<ellipse fill="none" stroke="black" cx="361" cy="-450" rx="27" ry="18"/>
<text text-anchor="middle" x="361" y="-445.8" font-family="Times,serif" font-size="14.00">T</text>
</g>
<!-- 27&#45;&gt;24 -->
<g id="edge2" class="edge">
<title>27&#45;&gt;24</title>
<path fill="none" stroke="black" d="M388.65,-504.76C384.29,-496.28 378.85,-485.71 373.96,-476.2"/>
<polygon fill="black" stroke="black" points="376.99,-474.44 369.3,-467.15 370.77,-477.64 376.99,-474.44"/>
</g>
<!-- 26 -->
<g id="node4" class="node">
<title>26</title>
<ellipse fill="none" stroke="black" cx="441" cy="-450" rx="27" ry="18"/>
<text text-anchor="middle" x="441" y="-445.8" font-family="Times,serif" font-size="14.00">E&#39;</text>
</g>
<!-- 27&#45;&gt;26 -->
<g id="edge3" class="edge">
<title>27&#45;&gt;26</title>
<path fill="none" stroke="black" d="M406.98,-505.12C412.5,-496.34 419.46,-485.26 425.65,-475.42"/>
<polygon fill="black" stroke="black" points="428.7,-477.15 431.06,-466.82 422.77,-473.42 428.7,-477.15"/>
</g>
<!-- 21 -->
<g id="node5" class="node">
<title>21</title>
<ellipse fill="none" stroke="black" cx="227" cy="-378" rx="27" ry="18"/>
<text text-anchor="middle" x="227" y="-373.8" font-family="Times,serif" font-size="14.00">F</text>
</g>
<!-- 24&#45;&gt;21 -->
<g id="edge4" class="edge">
<title>24&#45;&gt;21</title>
<path fill="none" stroke="black" d="M340.36,-438.22C318.09,-426.59 282.43,-407.96 257.06,-394.7"/>
<polygon fill="black" stroke="black" points="258.37,-391.44 247.89,-389.91 255.13,-397.64 258.37,-391.44"/>
</g>
<!-- 23 -->
<g id="node6" class="node">
<title>23</title>
<ellipse fill="none" stroke="black" cx="361" cy="-378" rx="27" ry="18"/>
<text text-anchor="middle" x="361" y="-373.8" font-family="Times,serif" font-size="14.00">T&#39;</text>
</g>
<!-- 24&#45;&gt;23 -->
<g id="edge5" class="edge">
<title>24&#45;&gt;23</title>
<path fill="none" stroke="black" d="M361,-431.7C361,-423.98 361,-414.71 361,-406.11"/>
<polygon fill="black" stroke="black" points="364.5,-406.1 361,-396.1 357.5,-406.1 364.5,-406.1"/>
</g>
<!-- 25 -->
<g id="node29" class="node">
<title>25</title>
<ellipse fill="none" stroke="black" cx="450" cy="-378" rx="43.53" ry="18"/>
<text text-anchor="middle" x="450" y="-373.8" font-family="Times,serif" font-size="14.00">EMPTY</text>
</g>
<!-- 26&#45;&gt;25 -->
<g id="edge28" class="edge">
<title>26&#45;&gt;25</title>
<path fill="none" stroke="black" d="M443.18,-432.05C444.17,-424.35 445.37,-415.03 446.48,-406.36"/>
<polygon fill="black" stroke="black" points="449.98,-406.64 447.78,-396.28 443.03,-405.75 449.98,-406.64"/>
</g>
<!-- 18 -->
<g id="node7" class="node">
<title>18</title>
<ellipse fill="none" stroke="black" cx="47" cy="-306" rx="27" ry="18"/>
<text text-anchor="middle" x="47" y="-301.8" font-family="Times,serif" font-size="14.00">gcd</text>
</g>
<!-- 21&#45;&gt;18 -->
<g id="edge6" class="edge">
<title>21&#45;&gt;18</title>
<path fill="none" stroke="black" d="M203.31,-369C174.56,-359.13 124.77,-341.51 83,-324 81.18,-323.24 79.32,-322.44 77.46,-321.61"/>
<polygon fill="black" stroke="black" points="78.73,-318.35 68.18,-317.38 75.83,-324.71 78.73,-318.35"/>
</g>
<!-- 19 -->
<g id="node8" class="node">
<title>19</title>
<ellipse fill="none" stroke="black" cx="119" cy="-306" rx="27" ry="18"/>
<text text-anchor="middle" x="119" y="-301.8" font-family="Times,serif" font-size="14.00">(</text>
</g>
<!-- 21&#45;&gt;19 -->
<g id="edge7" class="edge">
<title>21&#45;&gt;19</title>
<path fill="none" stroke="black" d="M208.19,-364.81C191,-353.67 165.38,-337.06 146.01,-324.5"/>
<polygon fill="black" stroke="black" points="147.89,-321.56 137.6,-319.05 144.08,-327.43 147.89,-321.56"/>
</g>
<!-- 7 -->
<g id="node9" class="node">
<title>7</title>
<ellipse fill="none" stroke="black" cx="191" cy="-306" rx="27" ry="18"/>
<text text-anchor="middle" x="191" y="-301.8" font-family="Times,serif" font-size="14.00">E</text>
</g>
<!-- 21&#45;&gt;7 -->
<g id="edge8" class="edge">
<title>21&#45;&gt;7</title>
<path fill="none" stroke="black" d="M218.65,-360.76C214.29,-352.28 208.85,-341.71 203.96,-332.2"/>
<polygon fill="black" stroke="black" points="206.99,-330.44 199.3,-323.15 200.77,-333.64 206.99,-330.44"/>
</g>
<!-- 17 -->
<g id="node10" class="node">
<title>17</title>
<ellipse fill="none" stroke="black" cx="263" cy="-306" rx="27" ry="18"/>
<text text-anchor="middle" x="263" y="-301.8" font-family="Times,serif" font-size="14.00">A</text>
</g>
<!-- 21&#45;&gt;17 -->
<g id="edge9" class="edge">
<title>21&#45;&gt;17</title>
<path fill="none" stroke="black" d="M235.35,-360.76C239.71,-352.28 245.15,-341.71 250.04,-332.2"/>
<polygon fill="black" stroke="black" points="253.23,-333.64 254.7,-323.15 247.01,-330.44 253.23,-333.64"/>
</g>
<!-- 20 -->
<g id="node11" class="node">
<title>20</title>
<ellipse fill="none" stroke="black" cx="335" cy="-306" rx="27" ry="18"/>
<text text-anchor="middle" x="335" y="-301.8" font-family="Times,serif" font-size="14.00">)</text>
</g>
<!-- 21&#45;&gt;20 -->
<g id="edge10" class="edge">
<title>21&#45;&gt;20</title>
<path fill="none" stroke="black" d="M245.81,-364.81C263,-353.67 288.62,-337.06 307.99,-324.5"/>
<polygon fill="black" stroke="black" points="309.92,-327.43 316.4,-319.05 306.11,-321.56 309.92,-327.43"/>
</g>
<!-- 22 -->
<g id="node28" class="node">
<title>22</title>
<ellipse fill="none" stroke="black" cx="424" cy="-306" rx="43.53" ry="18"/>
<text text-anchor="middle" x="424" y="-301.8" font-family="Times,serif" font-size="14.00">EMPTY</text>
</g>
<!-- 23&#45;&gt;22 -->
<g id="edge27" class="edge">
<title>23&#45;&gt;22</title>
<path fill="none" stroke="black" d="M374.36,-362.15C382.53,-353.07 393.18,-341.24 402.52,-330.87"/>
<polygon fill="black" stroke="black" points="405.25,-333.06 409.34,-323.29 400.05,-328.38 405.25,-333.06"/>
</g>
<!-- 4 -->
<g id="node12" class="node">
<title>4</title>
<ellipse fill="none" stroke="black" cx="111" cy="-234" rx="27" ry="18"/>
<text text-anchor="middle" x="111" y="-229.8" font-family="Times,serif" font-size="14.00">T</text>
</g>
<!-- 7&#45;&gt;4 -->
<g id="edge11" class="edge">
<title>7&#45;&gt;4</title>
<path fill="none" stroke="black" d="M175.19,-291.17C163.58,-281.01 147.61,-267.03 134.5,-255.56"/>
<polygon fill="black" stroke="black" points="136.6,-252.75 126.77,-248.8 131.99,-258.02 136.6,-252.75"/>
</g>
<!-- 6 -->
<g id="node13" class="node">
<title>6</title>
<ellipse fill="none" stroke="black" cx="191" cy="-234" rx="27" ry="18"/>
<text text-anchor="middle" x="191" y="-229.8" font-family="Times,serif" font-size="14.00">E&#39;</text>
</g>
<!-- 7&#45;&gt;6 -->
<g id="edge12" class="edge">
<title>7&#45;&gt;6</title>
<path fill="none" stroke="black" d="M191,-287.7C191,-279.98 191,-270.71 191,-262.11"/>
<polygon fill="black" stroke="black" points="194.5,-262.1 191,-252.1 187.5,-262.1 194.5,-262.1"/>
</g>
<!-- 16 -->
<g id="node19" class="node">
<title>16</title>
<ellipse fill="none" stroke="black" cx="263" cy="-234" rx="27" ry="18"/>
<text text-anchor="middle" x="263" y="-229.8" font-family="Times,serif" font-size="14.00">,</text>
</g>
<!-- 17&#45;&gt;16 -->
<g id="edge18" class="edge">
<title>17&#45;&gt;16</title>
<path fill="none" stroke="black" d="M263,-287.7C263,-279.98 263,-270.71 263,-262.11"/>
<polygon fill="black" stroke="black" points="266.5,-262.1 263,-252.1 259.5,-262.1 266.5,-262.1"/>
</g>
<!-- 15 -->
<g id="node20" class="node">
<title>15</title>
<ellipse fill="none" stroke="black" cx="335" cy="-234" rx="27" ry="18"/>
<text text-anchor="middle" x="335" y="-229.8" font-family="Times,serif" font-size="14.00">E</text>
</g>
<!-- 17&#45;&gt;15 -->
<g id="edge19" class="edge">
<title>17&#45;&gt;15</title>
<path fill="none" stroke="black" d="M277.57,-290.83C287.75,-280.94 301.52,-267.55 313.03,-256.36"/>
<polygon fill="black" stroke="black" points="315.47,-258.87 320.2,-249.38 310.59,-253.85 315.47,-258.87"/>
</g>
<!-- 1 -->
<g id="node14" class="node">
<title>1</title>
<ellipse fill="none" stroke="black" cx="35" cy="-162" rx="27" ry="18"/>
<text text-anchor="middle" x="35" y="-157.8" font-family="Times,serif" font-size="14.00">F</text>
</g>
<!-- 4&#45;&gt;1 -->
<g id="edge13" class="edge">
<title>4&#45;&gt;1</title>
<path fill="none" stroke="black" d="M95.62,-218.83C84.8,-208.87 70.14,-195.37 57.95,-184.14"/>
<polygon fill="black" stroke="black" points="60.08,-181.34 50.36,-177.14 55.34,-186.49 60.08,-181.34"/>
</g>
<!-- 3 -->
<g id="node15" class="node">
<title>3</title>
<ellipse fill="none" stroke="black" cx="111" cy="-162" rx="27" ry="18"/>
<text text-anchor="middle" x="111" y="-157.8" font-family="Times,serif" font-size="14.00">T&#39;</text>
</g>
<!-- 4&#45;&gt;3 -->
<g id="edge14" class="edge">
<title>4&#45;&gt;3</title>
<path fill="none" stroke="black" d="M111,-215.7C111,-207.98 111,-198.71 111,-190.11"/>
<polygon fill="black" stroke="black" points="114.5,-190.1 111,-180.1 107.5,-190.1 114.5,-190.1"/>
</g>
<!-- 5 -->
<g id="node18" class="node">
<title>5</title>
<ellipse fill="none" stroke="black" cx="200" cy="-162" rx="43.53" ry="18"/>
<text text-anchor="middle" x="200" y="-157.8" font-family="Times,serif" font-size="14.00">EMPTY</text>
</g>
<!-- 6&#45;&gt;5 -->
<g id="edge17" class="edge">
<title>6&#45;&gt;5</title>
<path fill="none" stroke="black" d="M193.18,-216.05C194.17,-208.35 195.37,-199.03 196.48,-190.36"/>
<polygon fill="black" stroke="black" points="199.98,-190.64 197.78,-180.28 193.03,-189.75 199.98,-190.64"/>
</g>
<!-- 0 -->
<g id="node16" class="node">
<title>0</title>
<ellipse fill="none" stroke="black" cx="27" cy="-90" rx="27" ry="18"/>
<text text-anchor="middle" x="27" y="-85.8" font-family="Times,serif" font-size="14.00">11</text>
</g>
<!-- 1&#45;&gt;0 -->
<g id="edge15" class="edge">
<title>1&#45;&gt;0</title>
<path fill="none" stroke="black" d="M33.02,-143.7C32.14,-135.98 31.08,-126.71 30.1,-118.11"/>
<polygon fill="black" stroke="black" points="33.57,-117.64 28.95,-108.1 26.61,-118.44 33.57,-117.64"/>
</g>
<!-- 2 -->
<g id="node17" class="node">
<title>2</title>
<ellipse fill="none" stroke="black" cx="116" cy="-90" rx="43.53" ry="18"/>
<text text-anchor="middle" x="116" y="-85.8" font-family="Times,serif" font-size="14.00">EMPTY</text>
</g>
<!-- 3&#45;&gt;2 -->
<g id="edge16" class="edge">
<title>3&#45;&gt;2</title>
<path fill="none" stroke="black" d="M112.24,-143.7C112.79,-135.98 113.45,-126.71 114.06,-118.11"/>
<polygon fill="black" stroke="black" points="117.56,-118.33 114.78,-108.1 110.57,-117.83 117.56,-118.33"/>
</g>
<!-- 12 -->
<g id="node21" class="node">
<title>12</title>
<ellipse fill="none" stroke="black" cx="312" cy="-162" rx="27" ry="18"/>
<text text-anchor="middle" x="312" y="-157.8" font-family="Times,serif" font-size="14.00">T</text>
</g>
<!-- 15&#45;&gt;12 -->
<g id="edge20" class="edge">
<title>15&#45;&gt;12</title>
<path fill="none" stroke="black" d="M329.43,-216.05C326.8,-208.06 323.61,-198.33 320.67,-189.4"/>
<polygon fill="black" stroke="black" points="323.96,-188.2 317.52,-179.79 317.31,-190.38 323.96,-188.2"/>
</g>
<!-- 14 -->
<g id="node22" class="node">
<title>14</title>
<ellipse fill="none" stroke="black" cx="392" cy="-162" rx="27" ry="18"/>
<text text-anchor="middle" x="392" y="-157.8" font-family="Times,serif" font-size="14.00">E&#39;</text>
</g>
<!-- 15&#45;&gt;14 -->
<g id="edge21" class="edge">
<title>15&#45;&gt;14</title>
<path fill="none" stroke="black" d="M347.37,-217.81C354.91,-208.55 364.7,-196.52 373.19,-186.09"/>
<polygon fill="black" stroke="black" points="376.06,-188.12 379.66,-178.16 370.63,-183.7 376.06,-188.12"/>
</g>
<!-- 9 -->
<g id="node23" class="node">
<title>9</title>
<ellipse fill="none" stroke="black" cx="228" cy="-90" rx="27" ry="18"/>
<text text-anchor="middle" x="228" y="-85.8" font-family="Times,serif" font-size="14.00">F</text>
</g>
<!-- 12&#45;&gt;9 -->
<g id="edge22" class="edge">
<title>12&#45;&gt;9</title>
<path fill="none" stroke="black" d="M295.8,-147.5C283.37,-137.14 266.01,-122.67 251.97,-110.97"/>
<polygon fill="black" stroke="black" points="254.07,-108.17 244.15,-104.46 249.59,-113.55 254.07,-108.17"/>
</g>
<!-- 11 -->
<g id="node24" class="node">
<title>11</title>
<ellipse fill="none" stroke="black" cx="312" cy="-90" rx="27" ry="18"/>
<text text-anchor="middle" x="312" y="-85.8" font-family="Times,serif" font-size="14.00">T&#39;</text>
</g>
<!-- 12&#45;&gt;11 -->
<g id="edge23" class="edge">
<title>12&#45;&gt;11</title>
<path fill="none" stroke="black" d="M312,-143.7C312,-135.98 312,-126.71 312,-118.11"/>
<polygon fill="black" stroke="black" points="315.5,-118.1 312,-108.1 308.5,-118.1 315.5,-118.1"/>
</g>
<!-- 13 -->
<g id="node27" class="node">
<title>13</title>
<ellipse fill="none" stroke="black" cx="401" cy="-90" rx="43.53" ry="18"/>
<text text-anchor="middle" x="401" y="-85.8" font-family="Times,serif" font-size="14.00">EMPTY</text>
</g>
<!-- 14&#45;&gt;13 -->
<g id="edge26" class="edge">
<title>14&#45;&gt;13</title>
<path fill="none" stroke="black" d="M394.18,-144.05C395.17,-136.35 396.37,-127.03 397.48,-118.36"/>
<polygon fill="black" stroke="black" points="400.98,-118.64 398.78,-108.28 394.03,-117.75 400.98,-118.64"/>
</g>
<!-- 8 -->
<g id="node25" class="node">
<title>8</title>
<ellipse fill="none" stroke="black" cx="221" cy="-18" rx="35.36" ry="18"/>
<text text-anchor="middle" x="221" y="-13.8" font-family="Times,serif" font-size="14.00">11132</text>
</g>
<!-- 9&#45;&gt;8 -->
<g id="edge24" class="edge">
<title>9&#45;&gt;8</title>
<path fill="none" stroke="black" d="M226.27,-71.7C225.5,-63.98 224.57,-54.71 223.71,-46.11"/>
<polygon fill="black" stroke="black" points="227.19,-45.71 222.71,-36.1 220.22,-46.4 227.19,-45.71"/>
</g>
<!-- 10 -->
<g id="node26" class="node">
<title>10</title>
<ellipse fill="none" stroke="black" cx="318" cy="-18" rx="43.53" ry="18"/>
<text text-anchor="middle" x="318" y="-13.8" font-family="Times,serif" font-size="14.00">EMPTY</text>
</g>
<!-- 11&#45;&gt;10 -->
<g id="edge25" class="edge">
<title>11&#45;&gt;10</title>
<path fill="none" stroke="black" d="M313.48,-71.7C314.14,-63.98 314.94,-54.71 315.68,-46.11"/>
<polygon fill="black" stroke="black" points="319.17,-46.37 316.53,-36.1 312.19,-45.77 319.17,-46.37"/>
</g>
</g>
</svg>
